<?xml version="1.0" encoding="UTF-8" standalone="no"?>
<!DOCTYPE svg PUBLIC "-//W3C//DTD SVG 1.1//EN" "http://www.w3.org/Graphics/SVG/1.1/DTD/svg11.dtd">
<svg width="100%" height="100%" viewBox="0 0 1024 768" version="1.1" xmlns="http://www.w3.org/2000/svg" xmlns:xlink="http://www.w3.org/1999/xlink" xml:space="preserve" xmlns:serif="http://www.serif.com/" style="fill-rule:evenodd;clip-rule:evenodd;stroke-linejoin:round;stroke-miterlimit:2;">
    <rect x="-21.806" y="-8.188" width="1062.8" height="785.527" style="fill:white;"/>
    <g transform="matrix(7.01611e-17,-1.14582,0.966105,5.91569e-17,688.923,447.241)">
        <path d="M183.074,212.665L291.903,385.41L74.244,385.41L183.074,212.665Z" style="fill:rgb(253,215,8);"/>
    </g>
    <g transform="matrix(7.01611e-17,-1.14582,0.966105,5.91569e-17,-245.143,669.861)">
        <path d="M183.074,212.665L291.903,385.41L74.244,385.41L183.074,212.665Z" style="fill:rgb(253,215,8);"/>
    </g>
    <g transform="matrix(-2.10483e-16,1.14582,-0.966105,-1.77471e-16,426.795,21.3311)">
        <path d="M183.074,212.665L291.903,385.41L74.244,385.41L183.074,212.665Z" style="fill:rgb(253,215,8);"/>
    </g>
    <g transform="matrix(-1.46952e-16,0.799972,-0.674502,-1.23904e-16,1092.8,163.529)">
        <path d="M183.074,212.665L291.903,385.41L74.244,385.41L183.074,212.665Z" style="fill:rgb(253,215,8);"/>
    </g>
    <g transform="matrix(-3.33948e-16,1.81793,-1.5328,-2.81571e-16,744.329,219.907)">
        <path d="M183.074,212.665L291.903,385.41L74.244,385.41L183.074,212.665Z" style="fill:rgb(253,215,8);"/>
    </g>
    <g transform="matrix(1.74391e-16,-0.569603,0.480265,1.47039e-16,51.1975,420.348)">
        <path d="M183.074,212.665L291.903,385.41L74.244,385.41L183.074,212.665Z" style="fill:rgb(253,215,8);"/>
    </g>
</svg>
